<?xml version="1.0" encoding="iso-8859-1"?>
<!-- Generator: Adobe Illustrator 19.0.0, SVG Export Plug-In . SVG Version: 6.00 Build 0)  -->
<svg version="1.1" id="Layer_1" xmlns="http://www.w3.org/2000/svg" xmlns:xlink="http://www.w3.org/1999/xlink" x="0px" y="0px"
	 viewBox="0 0 512 512" style="enable-background:new 0 0 512 512;" xml:space="preserve">
<rect x="40.851" y="288.681" style="fill:#AECE71;" width="430.298" height="215.149"/>
<rect x="40.851" y="73.532" style="fill:#4AC4C3;" width="430.298" height="215.149"/>
<g>
	<rect x="64" y="8.17" style="fill:#0CAAA9;" width="98.043" height="65.362"/>
	<rect x="206.979" y="8.17" style="fill:#0CAAA9;" width="98.043" height="65.362"/>
	<rect x="349.957" y="8.17" style="fill:#0CAAA9;" width="98.043" height="65.362"/>
</g>
<g>
	<circle style="fill:#700019;" cx="397.617" cy="147.064" r="8.17"/>
	<circle style="fill:#700019;" cx="364.936" cy="179.745" r="8.17"/>
	<circle style="fill:#700019;" cx="114.383" cy="430.298" r="8.17"/>
	<circle style="fill:#700019;" cx="397.617" cy="147.064" r="8.17"/>
	<circle style="fill:#700019;" cx="364.936" cy="179.745" r="8.17"/>
	<circle style="fill:#700019;" cx="114.383" cy="430.298" r="8.17"/>
	<path style="fill:#700019;" d="M471.149,65.362H456.17V8.17c0-4.512-3.657-8.17-8.17-8.17h-98.043c-4.513,0-8.17,3.658-8.17,8.17
		v57.191h-28.596V8.17c0-4.512-3.657-8.17-8.17-8.17h-98.043c-4.512,0-8.17,3.658-8.17,8.17v57.191h-28.596V8.17
		c0-4.512-3.658-8.17-8.17-8.17H64c-4.512,0-8.17,3.658-8.17,8.17v57.191H40.851c-4.512,0-8.17,3.658-8.17,8.17V503.83
		c0,4.512,3.658,8.17,8.17,8.17h430.298c4.513,0,8.17-3.658,8.17-8.17V73.532C479.319,69.02,475.662,65.362,471.149,65.362z
		 M358.128,16.34h81.702v49.021h-81.702V16.34z M215.149,16.34h81.702v49.021h-81.702V16.34z M72.17,16.34h81.702v49.021H72.17
		V16.34z M49.021,495.66V296.851h24.511c4.512,0,8.17-3.658,8.17-8.17c0-4.512-3.658-8.17-8.17-8.17H49.021V81.702h413.957v198.809
		H106.213c-4.512,0-8.17,3.658-8.17,8.17c0,4.512,3.658,8.17,8.17,8.17h356.766V495.66H49.021z"/>
</g>
<g>
</g>
<g>
</g>
<g>
</g>
<g>
</g>
<g>
</g>
<g>
</g>
<g>
</g>
<g>
</g>
<g>
</g>
<g>
</g>
<g>
</g>
<g>
</g>
<g>
</g>
<g>
</g>
<g>
</g>
</svg>
